<svg width="20" height="20" viewBox="0 0 20 20" fill="none" xmlns="http://www.w3.org/2000/svg" id="stickers">
<path d="M13.5156 9.41406C13.8392 9.41406 14.1016 8.8894 14.1016 8.24219C14.1016 7.59498 13.8392 7.07031 13.5156 7.07031C13.192 7.07031 12.9297 7.59498 12.9297 8.24219C12.9297 8.8894 13.192 9.41406 13.5156 9.41406Z" fill="#7E7C88"/>
<path d="M11.7578 17.6563C11.7578 18.2883 11.8843 18.886 12.0704 19.4568L19.4568 12.0704C18.886 11.8843 18.2493 11.7578 17.6172 11.7578C14.3865 11.7578 11.7578 14.4256 11.7578 17.6563Z" fill="#7E7C88"/>
<path d="M6.48438 9.41406C6.80798 9.41406 7.07031 8.8894 7.07031 8.24219C7.07031 7.59498 6.80798 7.07031 6.48438 7.07031C6.16077 7.07031 5.89844 7.59498 5.89844 8.24219C5.89844 8.8894 6.16077 9.41406 6.48438 9.41406Z" fill="#7E7C88"/>
<path d="M10 0C4.50742 0 0 4.50742 0 10C0 15.4926 4.50742 20 10 20C10.3239 20 10.6467 19.96 10.97 19.9287C10.7252 19.2148 10.5859 18.4523 10.5859 17.6562C10.5859 17.2409 10.6291 16.7971 10.6985 16.4014C10.4668 16.4264 10.2341 16.4453 10 16.4453C7.43648 16.4453 5.11738 14.9273 4.09141 12.5784L5.16484 12.1091C6.00488 14.0312 7.9023 15.2734 10 15.2734C10.3502 15.2734 10.6964 15.2289 11.0373 15.161C12.0366 12.4933 14.6048 10.5859 17.6172 10.5859C18.4132 10.5859 19.2148 10.7252 19.9287 10.97C19.96 10.6468 20 10.3239 20 10C20 4.50742 15.4926 0 10 0ZM6.48438 10.5859C5.49848 10.5859 4.72656 9.55652 4.72656 8.24219C4.72656 6.92785 5.49848 5.89844 6.48438 5.89844C7.47027 5.89844 8.24219 6.92785 8.24219 8.24219C8.24219 9.55652 7.47027 10.5859 6.48438 10.5859ZM13.5156 10.5859C12.5297 10.5859 11.7578 9.55652 11.7578 8.24219C11.7578 6.92785 12.5297 5.89844 13.5156 5.89844C14.5015 5.89844 15.2734 6.92785 15.2734 8.24219C15.2734 9.55652 14.5015 10.5859 13.5156 10.5859Z" fill="#7E7C88"/>
</svg>
