<svg width="500" height="500" viewBox="0 0 500 500" fill="none" xmlns="http://www.w3.org/2000/svg">
<rect width="500" height="500" fill="#F5F5F5"/>
<rect width="62.5" height="62.5" fill="#B6CBE2"/>
<rect y="125" width="62.5" height="62.5" fill="#B6CBE2"/>
<rect y="250" width="62.5" height="62.5" fill="#B6CBE2"/>
<rect y="375" width="62.5" height="62.5" fill="#B6CBE2"/>
<rect x="62.5" y="62.5" width="62.5" height="62.5" fill="#B6CBE2"/>
<rect x="62.5" y="187.5" width="62.5" height="62.5" fill="#B6CBE2"/>
<rect x="62.5" y="312.5" width="62.5" height="62.5" fill="#B6CBE2"/>
<rect x="62.5" y="437.5" width="62.5" height="62.5" fill="#B6CBE2"/>
<rect x="125" width="62.5" height="62.5" fill="#B6CBE2"/>
<rect x="125" y="125" width="62.5" height="62.5" fill="#B6CBE2"/>
<rect x="125" y="250" width="62.5" height="62.5" fill="#B6CBE2"/>
<rect x="125" y="375" width="62.5" height="62.5" fill="#B6CBE2"/>
<rect x="187.5" y="62.5" width="62.5" height="62.5" fill="#B6CBE2"/>
<rect x="187.5" y="187.5" width="62.5" height="62.5" fill="#B6CBE2"/>
<rect x="187.5" y="312.5" width="62.5" height="62.5" fill="#B6CBE2"/>
<rect x="187.5" y="437.5" width="62.5" height="62.5" fill="#B6CBE2"/>
<rect x="250" width="62.5" height="62.5" fill="#B6CBE2"/>
<rect x="250" y="125" width="62.5" height="62.5" fill="#B6CBE2"/>
<rect x="250" y="250" width="62.5" height="62.5" fill="#B6CBE2"/>
<rect x="250" y="375" width="62.5" height="62.5" fill="#B6CBE2"/>
<rect x="312.5" y="62.5" width="62.5" height="62.5" fill="#B6CBE2"/>
<rect x="312.5" y="187.5" width="62.5" height="62.5" fill="#B6CBE2"/>
<rect x="312.5" y="312.5" width="62.5" height="62.5" fill="#B6CBE2"/>
<rect x="312.5" y="437.5" width="62.5" height="62.5" fill="#B6CBE2"/>
<rect x="375" width="62.5" height="62.5" fill="#B6CBE2"/>
<rect x="375" y="125" width="62.5" height="62.5" fill="#B6CBE2"/>
<rect x="375" y="250" width="62.5" height="62.5" fill="#B6CBE2"/>
<rect x="375" y="375" width="62.5" height="62.5" fill="#B6CBE2"/>
<rect x="437.5" y="62.5" width="62.5" height="62.5" fill="#B6CBE2"/>
<rect x="437.5" y="187.5" width="62.5" height="62.5" fill="#B6CBE2"/>
<rect x="437.5" y="312.5" width="62.5" height="62.5" fill="#B6CBE2"/>
<rect x="437.5" y="437.5" width="62.5" height="62.5" fill="#B6CBE2"/>
</svg>
